<?xml version="1.0" encoding="UTF-8" standalone="no"?>
<svg viewBox="67 19 120 120" xmlns="http://www.w3.org/2000/svg">
   <g transform="translate(0 0)">
      <path d="m177.8 57.5c-2.8-6.6-6.8-12.5-11.8-17.5-5.1-5.1-11-9-17.5-11.8-6.8-2.9-14-4.3-21.5-4.3-7.4 0-14.7 1.5-21.5 4.3-6.6 2.7-12.5 6.7-17.5 11.8-5.1 5.1-9 11-11.8 17.5-2.9 6.8-4.3 14-4.3 21.5 0 7.5 1.5 14.7 4.3 21.5 2.8 6.6 6.8 12.5 11.8 17.5 5.1 5.1 11 9 17.5 11.8 6.8 2.9 14 4.3 21.5 4.3 7.4 0 14.7-1.5 21.5-4.3 6.5-2.8 12.4-6.8 17.5-11.8 5.1-5.1 9-11 11.8-17.5 2.9-6.8 4.3-14 4.3-21.5 0-7.5-1.4-14.7-4.3-21.5zm-38.8 71c-3.2-5.4-11.6-20.5-11.6-31.7 0-25.8 17.3-3.7 17.3-24.3 0-4.9-2.4-22.1-17.4-25.7-3.7-4.9-12.4-9.6-26.2-7.7 0 0 2.3.7 4.9 2 0 0-5 .7-5.2 4.1 0 0 9.9-.5 15.5 1.3-12.9 1.7-19.5 8.5-18.3 20.8 1.7 17.5 9.1 48.7 11.7 59.6-19.6-7-33.7-25.8-33.7-47.9 0-28.1 22.8-51 51-51 28.2 0 51 22.8 51 51-.1 24-16.7 44.1-39 49.5z" fill="#fff"/>
      <path clip-rule="evenodd" d="m124.2 87.3c0-6.6 9-8.7 12.4-8.7 9.2 0 22.2-5.9 25.4-5.8 3.3.1 5.4 1.4 5.4 2.9 0 2.2-18.4 10.5-25.5 9.8-6.8-.6-8.4.1-8.4 2.9 0 2.4 4.9 4.6 10.3 4.6 8.1 0 16-3.6 18.4-1.9 2.1 1.5-5.5 6.9-14.2 6.9-8.7 0-23.8-4.1-23.8-10.7z" fill="#fed30a" fill-rule="evenodd"/>
      <path d="m140.2 59.3c-2.4-3.1-6.7-3.2-8.2.4 2.3-1.8 5.1-2.2 8.2-.4z" fill="#2d4f8d"/>
      <path d="m113.5 59.4c-3.3-2-8.8-2.2-8.5 4.1 1.6-3.9 3.8-4.6 8.5-4.1z" fill="#2d4f8d"/>
      <path d="m138.2 65.2c-1.8 0-3.3 1.5-3.3 3.3 0 1.8 1.5 3.3 3.3 3.3 1.8 0 3.3-1.5 3.3-3.3 0-1.8-1.5-3.3-3.3-3.3zm1.2 3.1c-.5 0-1-.4-1-1 0-.5.4-1 1-1 .6 0 1 .4 1 1-.1.5-.5 1-1 1z" fill="#2d4f8d"/>
      <path d="m112.6 67c-2.1 0-3.8 1.7-3.8 3.8 0 2.1 1.7 3.8 3.8 3.8 2.1 0 3.8-1.7 3.8-3.8 0-2.1-1.7-3.8-3.8-3.8zm1.4 3.5c-.6 0-1.1-.5-1.1-1.1 0-.6.5-1.1 1.1-1.1.6 0 1.1.5 1.1 1.1 0 .6-.5 1.1-1.1 1.1z" fill="#2d4f8d"/>
      <path d="m147.1 107.6c-1.7-.4-8.3 4.3-10.8 6.1-.1-.5-.2-.9-.3-1.1-.3-1-6.7-.4-8.2 1.2-4-1.9-12-5.6-12.1-3.3-.3 3 0 15.5 1.6 16.4 1.2.7 8-3 11.4-4.9 0 0 0 0 .1 0 2.1.5 6 0 7.4-.9.2-.1.3-.3.4-.5 3.1 1.2 9.8 3.6 11.2 3.1 1.8-.5 1.4-15.6-.7-16.1z" fill="#67bd47"/>
   </g>
</svg>